# xmcd
#
# Track frame offsets:
#  150
#  17656
#  35887
#  46421
#  65829
#  81719
#  100232
#  115190
#  135375
#  144143
#  162613
#  176035
#  184704
#  200741
#  210893
#  220631
#  230473
#  238503
#  250371
#  261303
#
# Disc length: 3725 seconds
#
# Revision: 0
# Processed by: cddbd v1.5.1PL2 Copyright (c) Steve Scherf et al.
# Submitted via: Collectorz.com_Music_Collector 6.10
#
DISCID=290e8b14
DTITLE=Steve Tallis - Jezebel
DYEAR=2006
DGENRE=Blues
TTITLE0=That Suits Me
TTITLE1=I Want My Crown
TTITLE2=I Wonder Will My Mother Be On That Train
TTITLE3=The Soul Of A Man
TTITLE4=Leave You In The Hands Of My God
TTITLE5=Grinning In Your Face
TTITLE6=If I Had A Ticket
TTITLE7=You're Gonna Need Somebody On Your Bend
TTITLE8=Going Home Big Boy
TTITLE9=Then We'll Need That True Religion
TTITLE10=Can't Nobody Hide From God
TTITLE11=Go Down Old Hannah
TTITLE12=Gallis Pole
TTITLE13=He's Got The Whole World In His Hands
TTITLE14=Hey Rattler Hey
TTITLE15=Victory Is Mine
TTITLE16=Sheep Sheep Don'tcha Know The Road
TTITLE17=Yonder Come Day
TTITLE18=Grey Geese
TTITLE19=Army Of The Lord
EXTD=
EXTT0=
EXTT1=
EXTT2=
EXTT3=
EXTT4=
EXTT5=
EXTT6=
EXTT7=
EXTT8=
EXTT9=
EXTT10=
EXTT11=
EXTT12=
EXTT13=
EXTT14=
EXTT15=
EXTT16=
EXTT17=
EXTT18=
EXTT19=
PLAYORDER=
